<?xml version="1.0" encoding="UTF-8"?>
<svg id="Layer_1" xmlns="http://www.w3.org/2000/svg" version="1.1" viewBox="0 0 150 133">
  <!-- Generator: Adobe Illustrator 29.3.1, SVG Export Plug-In . SVG Version: 2.1.0 Build 151)  -->
  <defs>
    <style>
      .st0 {
        fill: #988a7d;
      }

      .st1 {
        fill: #fff;
        opacity: .7;
      }

      .st2 {
        fill: #f16632;
      }
    </style>
  </defs>
  <path class="st1" d="M0,0h150v117c0,8.8-7.2,16-16,16H16c-8.8,0-16-7.2-16-16V0h0Z"/>
  <g>
    <path class="st0" d="M80.2,6.7c-1.8.2-3.6.3-5.4.3v5.6h5.8c0-2-.1-4-.4-5.9"/>
    <path class="st0" d="M67.7,5.7c.2-1.4.4-2.7.7-4.1-1.6.9-3,2.1-4.1,3.5,1.1.2,2.3.4,3.4.5"/>
    <path class="st0" d="M74,6.1V0c-1.5,0-2.9.4-4.4,1.1,0,0-.2,0-.2.1-.3,1.5-.6,3.1-.8,4.6,1.8.2,3.6.3,5.4.3"/>
    <path class="st0" d="M74.8,6.1c1.8,0,3.6-.1,5.3-.3-.2-1.7-.5-3.4-.9-5.1C77.8.2,76.3,0,74.8,0v6.1Z"/>
    <path class="st0" d="M67.6,6.6c-1.3-.2-2.6-.4-3.8-.6-1.3,2-2.1,4.3-2.2,6.6h5.6c0-2,.1-4,.4-6"/>
    <path class="st0" d="M68.6,20.2c.2,1.8.6,3.5,1,5.3,1.4.6,2.9,1,4.5,1.1v-6.7c-1.8,0-3.6.1-5.4.3"/>
    <path class="st0" d="M74,19v-5.6h-5.9c0,2,.1,4,.4,5.9,1.8-.2,3.7-.3,5.5-.3"/>
    <path class="st0" d="M74,7c-1.9,0-3.7-.1-5.5-.3-.2,2-.3,4-.4,5.9h5.9v-5.6Z"/>
    <path class="st0" d="M88.1,13.4h-6.7c0,2-.1,4-.4,6,1.7.2,3.4.5,5,.8,1.3-2.1,2-4.4,2-6.9"/>
    <path class="st0" d="M88.1,12.6c0-1.5-.4-3.1-1.1-4.6-.3-.8-.8-1.6-1.2-2.3-1.6.3-3.1.6-4.7.8.2,2,.4,4,.4,6h6.7Z"/>
    <path class="st0" d="M85.2,5c-1.4-1.7-3.1-3.1-5.1-3.9.3,1.5.6,3.1.8,4.6,1.5-.2,2.9-.4,4.3-.7"/>
    <path class="st0" d="M67.2,13.4h-5.7c0,1.7.4,3.5,1.1,5.1.2.6.5,1.1.8,1.6,1.4-.3,2.8-.5,4.1-.7-.2-2-.4-4-.4-6"/>
    <path class="st0" d="M81,20.3c-.2,1.8-.6,3.5-.9,5.2,0,0,0,0,0,0,2.3-1,4.2-2.6,5.5-4.5-1.5-.3-3.1-.6-4.7-.8"/>
    <path class="st0" d="M80.6,13.4h-5.8v5.6c1.8,0,3.6.1,5.4.3.2-2,.3-4,.4-5.9"/>
    <path class="st0" d="M68.6,25c-.3-1.6-.6-3.1-.8-4.7-1.3.2-2.5.4-3.8.6,1.2,1.7,2.8,3.1,4.6,4.1"/>
    <path class="st0" d="M74.8,19.9v6.7c1.4,0,2.9-.2,4.3-.7.5-1.9.8-3.8,1.1-5.7-1.8-.2-3.5-.3-5.3-.3"/>
    <path class="st2" d="M87.4,42.3l32.1,32.2c8.7-11.1,7.9-27.2-2.3-37.5,0,0,0,0,0,0,0,0,0,0,0,0l-20-20-22.4,22.5-22.4-22.4-17.5,17.6s-4,4.1-4.7,5c-8.7,11.1-7.9,27.2,2.3,37.5,0,0,0,0,0,0,0,0,0,0,0,0,10.2,10.2,26.3,11,37.4,2.3l-36.5-36.6c2.6-2.6,6.7-2.7,9.4-.3l35.8,35.8c10.2,9,25.5,9.4,36.1,1l-36.5-36.5c2.5-2.5,6.5-2.7,9.2-.5"/>
    <path class="st0" d="M18,93.6h-1.4v-1.4h1.4v1.4ZM16.9,97.4v-1.5h-1.1c-.7,0-1.2.7-1.2,1.6s.5,1.5,1.1,1.5,1.1-.6,1.1-1.6M15.8,93.6h-1.4v-1.4h1.4v1.4ZM20.6,101.1h-1.6c-.9,0-1.6-.5-2-1.4-.3.5-.9.7-1.7.7-1.4,0-2.3-1.2-2.3-2.8s.9-2.9,2.4-2.9c0,0,1,0,3.1,0v3.7c0,.8.4,1.2,1.2,1.2h.8v1.6Z"/>
    <path class="st0" d="M23.7,103h-1.4v-1.4h1.4v1.4ZM25.6,101.1h-5.3v-1.6h1.1c.5,0,.8-.4.8-1.1v-2.6h1.6v2.5c0,.4,0,.8-.2,1.2h1.9v1.6ZM21.5,103h-1.4v-1.4h1.4v1.4Z"/>
    <path class="st0" d="M30.3,99.5c0-.9-.4-1.4-1-1.4h-.1c-.6,0-1,.6-1,1.3s.4,1.3,1.1,1.3,1.1-.5,1.1-1.3M33.3,101.1h-1.9c-.5.7-1.2,1-2.2,1s-1.7-.3-2.2-1h-1.8v-1.6h1.3c0-1.7,1-2.7,2.6-2.7s2.7,1,2.7,2.7h1.4v1.6Z"/>
    <path class="st0" d="M36.4,98.8c0,.6-.2,1.1-.5,1.5-.4.5-.9.7-1.6.7h-1.5v-1.6h1.2c.5,0,.8-.4.8-1.1v-4.8h1.6v5.3Z"/>
    <path class="st0" d="M41.1,101.1h-1.5c-1.2,0-2-.7-2-1.9v-5.6h1.6v4.7c0,.8.2,1.2,1.4,1.2h.5v1.6Z"/>
    <path class="st0" d="M47.3,97.2c-.5-.3-1-.4-1.5-.4s-.9.1-1.4.3c.3.2.6.3.8.5.2.2.5.4.7.7.2-.1.5-.3.8-.5.2-.2.4-.4.5-.6M50.7,101.1h-3c-.7,0-1.3-.3-1.8-.8-.3.2-.6.4-1.1.6-.5.2-1,.2-1.4.2h-2.6v-1.6h2.5c.6,0,1.1-.1,1.5-.4-.2-.2-.5-.5-.9-.7-.5-.3-1-.5-1.4-.6v-1.3c1.1-.6,2.1-.9,3.2-.9s2.5.4,3.6,1.3c-.1.3-.4.7-.9,1.2-.5.5-.9.9-1.3,1.2.2.2.5.3.9.3h2.7v1.6Z"/>
    <path class="st0" d="M53.7,98.8c0,.6-.2,1.1-.5,1.5-.4.5-.9.7-1.6.7h-1.5v-1.6h1.2c.5,0,.8-.4.8-1.1v-4.8h1.6v5.3Z"/>
    <rect class="st0" x="54.9" y="93.5" width="1.6" height="7.5"/>
    <g>
      <path class="st0" d="M64.8,93.6h-1.4v-1.4h1.4v1.4ZM63.7,97.4v-1.5h-1.1c-.7,0-1.2.7-1.2,1.6s.5,1.5,1.1,1.5,1.1-.6,1.1-1.6M62.6,93.6h-1.4v-1.4h1.4v1.4ZM67.4,101.1h-1.6c-.9,0-1.6-.5-2-1.4-.3.5-.9.7-1.7.7-1.4,0-2.3-1.2-2.3-2.8s.9-2.9,2.4-2.9c0,0,1,0,3.1,0v3.7c0,.8.4,1.2,1.2,1.2h.8v1.6Z"/>
      <path class="st0" d="M72.1,99.5c0-.9-.3-1.4-1-1.4h-.1c-.6,0-1,.6-1,1.3s.4,1.3,1.1,1.3,1.1-.5,1.1-1.3M75.1,101.1h-1.9c-.5.7-1.2,1-2.2,1s-1.7-.3-2.2-1h-1.8v-1.6h1.3c0-1.7,1-2.7,2.6-2.7s2.7,1,2.7,2.7h1.4v1.6Z"/>
      <path class="st0" d="M82.9,101.1h-8.3v-1.6h6.6c0-1.3-1.1-2.3-2.4-2.3s-1.5.4-2,.8c-.2-.2-.4-.6-.8-1.1.8-.8,1.8-1.2,2.9-1.2,2.7,0,4.1,1.8,4.1,4.9v.5Z"/>
      <path class="st0" d="M88.9,101.1h-1.8c-.3,1.3-1.3,1.9-3.2,1.9v-1.3c1.1,0,1.6-.5,1.6-1.5v-4.4h1.6v3.7h1.7v1.6Z"/>
      <path class="st0" d="M92,98.8c0,.6-.2,1.1-.5,1.5-.4.5-.9.7-1.6.7h-1.5v-1.6h1.2c.5,0,.8-.4.8-1.1v-4.8h1.6v5.3Z"/>
    </g>
    <rect class="st0" x="93.2" y="93.5" width="1.6" height="7.5"/>
    <g>
      <path class="st0" d="M103,93.6h-1.4v-1.4h1.4v1.4ZM101.9,97.4v-1.5h-1.1c-.7,0-1.2.7-1.2,1.6s.5,1.5,1.1,1.5,1.1-.6,1.1-1.6M100.8,93.6h-1.4v-1.4h1.4v1.4ZM105.7,101.1h-1.6c-.9,0-1.6-.5-2-1.4-.3.5-.9.7-1.7.7-1.4,0-2.3-1.2-2.3-2.8s.9-2.9,2.4-2.9c0,0,1,0,3.1,0v3.7c0,.8.4,1.2,1.2,1.2h.8v1.6Z"/>
      <path class="st0" d="M108.7,103h-1.4v-1.4h1.4v1.4ZM110.6,101.1h-5.3v-1.6h1.1c.5,0,.8-.4.8-1.1v-2.6h1.6v2.5c0,.4,0,.8-.2,1.2h1.9v1.6ZM106.5,103h-1.4v-1.4h1.4v1.4Z"/>
      <path class="st0" d="M116.9,97.2c-.5-.3-1-.4-1.5-.4s-.9.1-1.4.3c.3.2.6.3.8.5.2.2.5.4.7.7.2-.1.5-.3.8-.5.2-.2.4-.4.5-.6M120.2,101.1h-3c-.7,0-1.3-.3-1.8-.8-.3.2-.6.4-1.1.6-.5.2-1,.2-1.4.2h-2.6v-1.6h2.5c.6,0,1.1-.1,1.5-.4-.2-.2-.5-.5-.9-.7-.5-.3-1-.5-1.4-.6v-1.3c1.1-.6,2.1-.9,3.2-.9s2.5.4,3.6,1.3c-.1.3-.4.7-.9,1.2-.5.5-.9.9-1.3,1.2.2.2.5.3.9.3h2.7v1.6Z"/>
      <path class="st0" d="M124.8,99.5c0-.9-.3-1.4-1-1.4h-.1c-.6,0-1,.6-1,1.3s.4,1.3,1.1,1.3,1.1-.5,1.1-1.3M127.8,101.1h-1.9c-.5.7-1.2,1-2.2,1s-1.7-.3-2.2-1h-1.8v-1.6h1.3c0-1.7,1-2.7,2.6-2.7s2.7,1,2.7,2.7h1.4v1.6Z"/>
      <path class="st0" d="M132.6,103h-1.5v-1.4h1.5v1.4ZM135.7,101.1h-8.3v-1.6h6.6c0-1.3-1.1-2.3-2.4-2.3s-1.5.4-2,.8c-.2-.2-.4-.6-.8-1.1.8-.8,1.8-1.2,2.9-1.2,2.7,0,4.1,1.8,4.1,4.9v.5Z"/>
      <path class="st0" d="M15,109.5h.3c1,0,1.6-.4,1.6-1.2s-.5-1.1-1.5-1.1h-.4v2.3ZM16.4,110.3l2.3,3.1h-1.3l-2.1-3h-.2v3h-1.1v-7.3h1.3c1,0,1.7.2,2.1.5.5.4.7.9.7,1.6s-.2,1-.4,1.3c-.3.4-.7.6-1.2.7"/>
      <path class="st0" d="M20.2,111.1c0,.4.1.8.4,1.1.2.3.5.4.9.4s.7-.1,1-.4c.2-.3.4-.6.4-1.1s-.1-.8-.4-1.1c-.2-.3-.6-.4-.9-.4s-.7.1-.9.4c-.2.3-.4.6-.4,1M22.8,108.8h1.1v4.6h-1.1v-.5c-.4.4-.9.6-1.4.6s-1.2-.2-1.6-.7c-.4-.5-.6-1.1-.6-1.8s.2-1.3.6-1.7c.4-.5.9-.7,1.6-.7s1,.2,1.4.7v-.5Z"/>
      <path class="st0" d="M25.2,105.4h1.1v3.8c.4-.3.8-.5,1.3-.5s.9.2,1.2.5c.3.3.4.8.4,1.4v2.8h-1.1v-2.7c0-.4,0-.6-.2-.8-.1-.2-.3-.2-.6-.2s-.6.1-.8.3c-.1.2-.2.6-.2,1.2v2.2h-1.1v-8Z"/>
      <path class="st0" d="M30.5,108.8h1.1v.4c.2-.2.4-.4.5-.4.2,0,.3-.1.6-.1.5,0,.9.2,1.2.7.3-.5.8-.7,1.4-.7,1,0,1.6.6,1.6,1.9v2.8h-1.1v-2.6c0-.4,0-.8-.2-.9-.1-.2-.3-.3-.5-.3s-.5.1-.6.3c-.1.2-.2.6-.2,1.1v2.4h-1.1v-2.5c0-.8-.2-1.2-.7-1.2s-.5.1-.7.3c-.1.2-.2.6-.2,1.1v2.4h-1.1v-4.6Z"/>
      <path class="st0" d="M39,111.1c0,.4.1.8.4,1.1.2.3.5.4.9.4s.7-.1,1-.4c.2-.3.4-.6.4-1.1s-.1-.8-.4-1.1c-.2-.3-.6-.4-.9-.4s-.7.1-.9.4c-.2.3-.4.6-.4,1M41.6,108.8h1.1v4.6h-1.1v-.5c-.4.4-.9.6-1.4.6s-1.2-.2-1.6-.7c-.4-.5-.6-1.1-.6-1.8s.2-1.3.6-1.7c.4-.5.9-.7,1.6-.7s1,.2,1.4.7v-.5Z"/>
    </g>
    <rect class="st0" x="47.2" y="106.1" width="1.1" height="7.3"/>
    <path class="st0" d="M49.8,108.8h1.1v.4c.4-.4.8-.6,1.3-.6s1,.2,1.3.5c.3.3.4.8.4,1.4v2.8h-1.1v-2.6c0-.5,0-.8-.2-.9-.1-.2-.3-.3-.7-.3s-.6.1-.8.3c-.1.2-.2.6-.2,1.2v2.2h-1.1v-4.6Z"/>
    <polygon class="st0" points="56.2 109.8 56.2 113.4 55.2 113.4 55.2 109.8 54.7 109.8 54.7 108.8 55.2 108.8 55.2 107.1 56.2 107.1 56.2 108.8 57 108.8 57 109.8 56.2 109.8"/>
    <g>
      <path class="st0" d="M61,110.5c-.1-.6-.5-.9-1.1-.9s-.3,0-.4,0c-.1,0-.2,0-.3.2,0,0-.2.2-.2.3,0,.1-.1.2-.2.4h2.1ZM62,111.4h-3.3c0,.4.1.7.4.9.2.2.5.3.8.3s.5,0,.7-.2c.2-.1.4-.4.6-.7l.9.5c-.1.2-.3.4-.4.6-.2.2-.3.3-.5.4-.2.1-.4.2-.6.2-.2,0-.4,0-.7,0-.7,0-1.2-.2-1.7-.7-.4-.4-.6-1-.6-1.8s.2-1.3.6-1.8c.4-.4.9-.7,1.6-.7s1.2.2,1.6.6c.4.4.6,1,.6,1.8v.3Z"/>
      <path class="st0" d="M63.2,108.8h1.1v.4c.2-.2.4-.3.5-.4.2,0,.3-.1.5-.1s.6,0,.9.3l-.5,1c-.2-.1-.4-.2-.6-.2-.6,0-.9.4-.9,1.3v2.4h-1.1v-4.6Z"/>
      <path class="st0" d="M67,108.8h1.1v.4c.4-.4.8-.6,1.3-.6s1,.2,1.3.5c.3.3.4.8.4,1.4v2.8h-1.1v-2.6c0-.5,0-.8-.2-.9-.1-.2-.3-.3-.7-.3s-.6.1-.8.3c-.1.2-.2.6-.2,1.2v2.2h-1.1v-4.6Z"/>
      <path class="st0" d="M73.2,111.1c0,.4.1.8.4,1.1.2.3.5.4.9.4s.7-.1,1-.4c.2-.3.4-.6.4-1.1s-.1-.8-.4-1.1c-.2-.3-.6-.4-.9-.4s-.7.1-.9.4c-.2.3-.4.6-.4,1M75.7,108.8h1.1v4.6h-1.1v-.5c-.4.4-.9.6-1.4.6s-1.2-.2-1.6-.7c-.4-.5-.6-1.1-.6-1.8s.2-1.3.6-1.7c.4-.5.9-.7,1.6-.7s1,.2,1.4.7v-.5Z"/>
    </g>
    <polygon class="st0" points="79.2 109.8 79.2 113.4 78.1 113.4 78.1 109.8 77.7 109.8 77.7 108.8 78.1 108.8 78.1 107.1 79.2 107.1 79.2 108.8 80 108.8 80 109.8 79.2 109.8"/>
    <g>
      <path class="st0" d="M81.8,113.4h-1.1v-4.6h1.1v4.6ZM80.6,106.9c0-.2,0-.3.2-.5.1-.1.3-.2.5-.2s.4,0,.5.2c.1.1.2.3.2.5s0,.4-.2.5c-.1.1-.3.2-.5.2s-.4,0-.5-.2-.2-.3-.2-.5"/>
      <path class="st0" d="M84,111.1c0,.5.1.8.4,1.1.3.3.6.4,1,.4s.8-.1,1-.4c.2-.3.4-.6.4-1.1s-.1-.8-.4-1.1c-.3-.3-.6-.4-1-.4s-.7.1-1,.4-.4.6-.4,1.1M82.9,111.1c0-.7.2-1.2.7-1.7.5-.5,1.1-.7,1.7-.7s1.3.2,1.8.7c.5.5.7,1,.7,1.7s-.2,1.3-.7,1.7c-.5.5-1.1.7-1.8.7s-1.3-.2-1.7-.7c-.5-.5-.7-1.1-.7-1.8"/>
      <path class="st0" d="M89,108.8h1.1v.4c.4-.4.8-.6,1.3-.6s1,.2,1.3.5c.3.3.4.8.4,1.4v2.8h-1.1v-2.6c0-.5,0-.8-.2-.9-.1-.2-.3-.3-.7-.3s-.6.1-.8.3c-.1.2-.2.6-.2,1.2v2.2h-1.1v-4.6Z"/>
      <path class="st0" d="M95.2,111.1c0,.4.1.8.4,1.1.2.3.5.4.9.4s.7-.1,1-.4c.2-.3.4-.6.4-1.1s-.1-.8-.4-1.1c-.2-.3-.6-.4-.9-.4s-.7.1-.9.4c-.2.3-.4.6-.4,1M97.7,108.8h1.1v4.6h-1.1v-.5c-.4.4-.9.6-1.4.6s-1.2-.2-1.6-.7c-.4-.5-.6-1.1-.6-1.8s.2-1.3.6-1.7c.4-.5.9-.7,1.6-.7s1,.2,1.4.7v-.5Z"/>
    </g>
    <rect class="st0" x="100.1" y="105.4" width="1.1" height="8"/>
    <g>
      <path class="st0" d="M109.8,107.2l-.9.5c-.2-.3-.3-.5-.5-.6-.2-.1-.4-.2-.6-.2s-.6,0-.8.3c-.2.2-.3.4-.3.6s.3.6.8.9l.7.3c.6.2,1,.5,1.3.9.3.3.4.8.4,1.3s-.2,1.2-.7,1.7c-.5.4-1,.7-1.7.7s-1.2-.2-1.6-.6c-.4-.4-.7-.9-.8-1.6l1.1-.2c0,.4.1.7.3.9.2.3.6.5,1,.5s.6-.1.9-.3c.2-.2.3-.5.3-.9s0-.3,0-.4c0-.1-.1-.2-.2-.3,0,0-.2-.2-.3-.3-.1,0-.3-.2-.5-.2l-.7-.3c-1-.4-1.5-1-1.5-1.9s.2-1,.6-1.4c.4-.4.9-.6,1.6-.6s1.5.4,2,1.2"/>
      <path class="st0" d="M112,111.1c0,.5.1.8.4,1.1.3.3.6.4,1,.4s.7-.1,1-.4c.2-.3.4-.6.4-1.1s-.1-.8-.4-1.1c-.3-.3-.6-.4-1-.4s-.7.1-1,.4c-.3.3-.4.6-.4,1.1M110.9,111.1c0-.7.2-1.2.7-1.7.5-.5,1.1-.7,1.7-.7s1.3.2,1.7.7c.5.5.7,1,.7,1.7s-.2,1.3-.7,1.7c-.5.5-1.1.7-1.8.7s-1.3-.2-1.7-.7c-.5-.5-.7-1.1-.7-1.8"/>
      <path class="st0" d="M120.6,109v1.4c-.2-.3-.5-.5-.7-.6-.2-.1-.4-.2-.7-.2-.4,0-.7.1-1,.4-.3.3-.4.6-.4,1.1s.1.8.4,1.1c.3.3.6.4,1,.4s.5,0,.7-.2c.2-.1.4-.3.7-.6v1.4c-.4.2-.9.3-1.3.3-.7,0-1.3-.2-1.8-.7-.5-.5-.7-1-.7-1.7s.2-1.3.7-1.7,1.1-.7,1.8-.7.9.1,1.3.3"/>
      <path class="st0" d="M122.7,113.4h-1.1v-4.6h1.1v4.6ZM121.4,106.9c0-.2,0-.3.2-.5.1-.1.3-.2.5-.2s.4,0,.5.2c.1.1.2.3.2.5s0,.4-.2.5c-.1.1-.3.2-.5.2s-.4,0-.5-.2-.2-.3-.2-.5"/>
      <path class="st0" d="M127.1,110.5c-.1-.6-.5-.9-1.1-.9s-.3,0-.4,0c-.1,0-.2,0-.3.2,0,0-.2.2-.2.3,0,.1-.1.2-.2.4h2.1ZM128.2,111.4h-3.3c0,.4.2.7.4.9.2.2.5.3.8.3s.5,0,.7-.2c.2-.1.4-.4.6-.7l.9.5c-.1.2-.3.4-.4.6-.2.2-.3.3-.5.4-.2.1-.4.2-.6.2-.2,0-.4,0-.7,0-.7,0-1.2-.2-1.7-.7-.4-.4-.6-1-.6-1.8s.2-1.3.6-1.8c.4-.4.9-.7,1.6-.7s1.2.2,1.6.6c.4.4.6,1,.6,1.8v.3Z"/>
    </g>
    <polygon class="st0" points="130.5 109.8 130.5 113.4 129.5 113.4 129.5 109.8 129 109.8 129 108.8 129.5 108.8 129.5 107.1 130.5 107.1 130.5 108.8 131.4 108.8 131.4 109.8 130.5 109.8"/>
    <polygon class="st0" points="133.5 112.6 131.5 108.8 132.7 108.8 134.1 111.5 135.4 108.8 136.6 108.8 133 115.9 131.7 115.9 133.5 112.6"/>
  </g>
</svg>